<svg width="155" height="27" viewBox="0 0 155 27" fill="none" xmlns="http://www.w3.org/2000/svg">
<path d="M0.124611 14.1044V10.3544L15.1246 3.74929V8.06392L4.85472 12.1868L4.99322 11.9631V12.4957L4.85472 12.272L15.1246 16.3949V20.7095L0.124611 14.1044ZM22.8769 23H17.9337L25.4657 1.18182H31.4103L38.9316 23H33.9884L28.5232 6.16761H28.3527L22.8769 23ZM22.5679 14.424H34.2441V18.0249H22.5679V14.424ZM45.4108 13.5398V23H40.8724V1.18182H45.2829V9.52344H45.4747C45.844 8.55753 46.4406 7.80114 47.2645 7.25426C48.0883 6.70028 49.1217 6.4233 50.3646 6.4233C51.501 6.4233 52.4917 6.67187 53.3369 7.16903C54.1892 7.65909 54.8497 8.36577 55.3184 9.28906C55.7943 10.2053 56.0287 11.3026 56.0216 12.581V23H51.4832V13.3906C51.4903 12.3821 51.2346 11.5973 50.7162 11.0362C50.2048 10.4751 49.4875 10.1946 48.5642 10.1946C47.9463 10.1946 47.3994 10.326 46.9235 10.5888C46.4548 10.8516 46.0855 11.2351 45.8156 11.7393C45.5528 12.2365 45.4179 12.8366 45.4108 13.5398ZM58.9931 23V6.63636H63.3184V9.52344H63.5102C63.8511 8.56463 64.4192 7.80824 65.2147 7.25426C66.0102 6.70028 66.9619 6.4233 68.0698 6.4233C69.192 6.4233 70.1472 6.70384 70.9356 7.26491C71.7239 7.81889 72.2495 8.57173 72.5123 9.52344H72.6827C73.0166 8.58594 73.6202 7.83665 74.4938 7.27557C75.3745 6.70739 76.415 6.4233 77.6153 6.4233C79.1423 6.4233 80.3816 6.9098 81.3333 7.88281C82.2921 8.84872 82.7715 10.2195 82.7715 11.995V23H78.2438V12.8899C78.2438 11.9808 78.0023 11.299 77.5194 10.8445C77.0364 10.3899 76.4327 10.1626 75.7083 10.1626C74.8844 10.1626 74.2417 10.4254 73.78 10.951C73.3184 11.4695 73.0876 12.1548 73.0876 13.0071V23H68.6877V12.794C68.6877 11.9915 68.4569 11.3523 67.9952 10.8764C67.5407 10.4006 66.9406 10.1626 66.1948 10.1626C65.6906 10.1626 65.236 10.2905 64.8312 10.5462C64.4335 10.7947 64.1174 11.1463 63.883 11.6009C63.6487 12.0483 63.5315 12.5739 63.5315 13.1776V23H58.9931ZM93.2138 23.3196C91.5305 23.3196 90.0817 22.9787 88.8672 22.2969C87.6598 21.608 86.7294 20.6349 86.076 19.3778C85.4226 18.1136 85.0959 16.6186 85.0959 14.8928C85.0959 13.2095 85.4226 11.7322 86.076 10.4609C86.7294 9.18963 87.6491 8.19886 88.8352 7.48864C90.0284 6.77841 91.4276 6.4233 93.0327 6.4233C94.1122 6.4233 95.1172 6.5973 96.0476 6.94531C96.9851 7.28622 97.8018 7.80114 98.4979 8.49006C99.201 9.17898 99.7479 10.0455 100.138 11.0895C100.529 12.1264 100.724 13.3409 100.724 14.733V15.9794H86.907V13.1669H96.4524C96.4524 12.5135 96.3104 11.9347 96.0263 11.4304C95.7422 10.9261 95.348 10.532 94.8438 10.2479C94.3466 9.95668 93.7678 9.81108 93.1072 9.81108C92.4183 9.81108 91.8075 9.97088 91.2749 10.2905C90.7493 10.603 90.3374 11.0256 90.0391 11.5582C89.7408 12.0838 89.5881 12.6697 89.581 13.3161V15.9901C89.581 16.7997 89.7301 17.4993 90.0284 18.0888C90.3338 18.6783 90.7635 19.1328 91.3175 19.4524C91.8714 19.772 92.5284 19.9318 93.2884 19.9318C93.7926 19.9318 94.2543 19.8608 94.6733 19.7188C95.0923 19.5767 95.451 19.3636 95.7493 19.0795C96.0476 18.7955 96.2749 18.4474 96.4311 18.0355L100.629 18.3125C100.415 19.321 99.9787 20.2017 99.3182 20.9545C98.6648 21.7003 97.8196 22.2827 96.7827 22.7017C95.7528 23.1136 94.5632 23.3196 93.2138 23.3196ZM109.116 23.2663C107.873 23.2663 106.747 22.9467 105.739 22.3075C104.737 21.6612 103.942 20.7131 103.352 19.4631C102.77 18.206 102.479 16.6648 102.479 14.8395C102.479 12.9645 102.781 11.4055 103.384 10.1626C103.988 8.91264 104.791 7.97869 105.792 7.3608C106.801 6.7358 107.905 6.4233 109.105 6.4233C110.021 6.4233 110.785 6.57955 111.396 6.89205C112.014 7.19744 112.511 7.58097 112.887 8.04261C113.271 8.49716 113.562 8.9446 113.761 9.38494H113.899V1.18182H118.427V23H113.953V20.3793H113.761C113.548 20.8338 113.246 21.2848 112.855 21.7322C112.472 22.1726 111.971 22.5384 111.353 22.8295C110.742 23.1207 109.997 23.2663 109.116 23.2663ZM110.554 19.6548C111.286 19.6548 111.904 19.456 112.408 19.0582C112.919 18.6534 113.31 18.0888 113.58 17.3643C113.857 16.6399 113.995 15.7912 113.995 14.8182C113.995 13.8452 113.86 13 113.59 12.2827C113.32 11.5653 112.93 11.0114 112.418 10.6207C111.907 10.2301 111.286 10.0348 110.554 10.0348C109.808 10.0348 109.18 10.2372 108.668 10.642C108.157 11.0469 107.77 11.608 107.507 12.3253C107.244 13.0426 107.113 13.8736 107.113 14.8182C107.113 15.7699 107.244 16.6115 107.507 17.343C107.777 18.0675 108.164 18.6357 108.668 19.0476C109.18 19.4524 109.808 19.6548 110.554 19.6548ZM137.405 0.159089L130.373 26.2812H126.464L133.495 0.159089H137.405ZM154.875 16.1499L139.875 22.755V18.4403L150.145 14.3175L150.007 14.5412V14.0085L150.145 14.2322L139.875 10.1094V5.79474L154.875 12.3999V16.1499Z" fill="#F9FAFB"/>
</svg>
